<mxfile host="app.diagrams.net" modified="2023-06-22T12:36:13.170Z" agent="Mozilla/5.0 (Windows NT 10.0; Win64; x64) AppleWebKit/537.36 (KHTML, like Gecko) Chrome/114.0.0.0 Safari/537.36" version="21.5.0" etag="lZVeur6IUr_yd8lFiINU" type="github">
  <diagram name="Page-1" id="tMCMHhbmJrTcd6gPD3CS">
    <mxGraphModel>
      <root>
        <mxCell id="0" />
        <mxCell id="1" parent="0" />
      </root>
    </mxGraphModel>
  </diagram>
</mxfile>
